<?xml version="1.0" encoding="UTF-8" standalone="no"?>
<!-- Created with Inkscape (http://www.inkscape.org/) -->

<svg
   xmlns:dc="http://purl.org/dc/elements/1.1/"
   xmlns:cc="http://creativecommons.org/ns#"
   xmlns:rdf="http://www.w3.org/1999/02/22-rdf-syntax-ns#"
   xmlns:svg="http://www.w3.org/2000/svg"
   xmlns="http://www.w3.org/2000/svg"
   xmlns:sodipodi="http://sodipodi.sourceforge.net/DTD/sodipodi-0.dtd"
   xmlns:inkscape="http://www.inkscape.org/namespaces/inkscape"
   width="585mm"
   height="255mm"
   viewBox="0 0 585 255"
   version="1.1"
   id="svg8"
   sodipodi:docname="hax_big.svg"
   inkscape:version="0.92.4 (5da689c313, 2019-01-14)">
  <defs
     id="defs2" />
  <sodipodi:namedview
     id="base"
     pagecolor="#ffffff"
     bordercolor="#666666"
     borderopacity="1.0"
     inkscape:pageopacity="0.0"
     inkscape:pageshadow="2"
     inkscape:zoom="0.45254834"
     inkscape:cx="758.41055"
     inkscape:cy="-63.089779"
     inkscape:document-units="mm"
     inkscape:current-layer="layer1"
     showgrid="false"
     inkscape:window-width="2736"
     inkscape:window-height="1699"
     inkscape:window-x="-13"
     inkscape:window-y="-13"
     inkscape:window-maximized="1"
     fit-margin-top="0"
     fit-margin-left="0"
     fit-margin-right="0"
     fit-margin-bottom="0" />
  <metadata
     id="metadata5">
    <rdf:RDF>
      <cc:Work
         rdf:about="">
        <dc:format>image/svg+xml</dc:format>
        <dc:type
           rdf:resource="http://purl.org/dc/dcmitype/StillImage" />
        <dc:title></dc:title>
      </cc:Work>
    </rdf:RDF>
  </metadata>
  <g
     inkscape:label="Layer 1"
     inkscape:groupmode="layer"
     id="layer1"
     transform="translate(347.76041,-572.8562)">
    <path
       inkscape:connector-curvature="0"
       style="color:#000000;font-style:normal;font-variant:normal;font-weight:normal;font-stretch:normal;font-size:medium;line-height:normal;font-family:sans-serif;font-variant-ligatures:normal;font-variant-position:normal;font-variant-caps:normal;font-variant-numeric:normal;font-variant-alternates:normal;font-feature-settings:normal;text-indent:0;text-align:start;text-decoration:none;text-decoration-line:none;text-decoration-style:solid;text-decoration-color:#000000;letter-spacing:normal;word-spacing:normal;text-transform:none;writing-mode:lr-tb;direction:ltr;text-orientation:mixed;dominant-baseline:auto;baseline-shift:baseline;text-anchor:start;white-space:normal;shape-padding:0;clip-rule:nonzero;display:inline;overflow:visible;visibility:visible;opacity:1;isolation:auto;mix-blend-mode:normal;color-interpolation:sRGB;color-interpolation-filters:linearRGB;solid-color:#000000;solid-opacity:1;vector-effect:none;fill:#ffffff;fill-opacity:1;fill-rule:nonzero;stroke:none;stroke-width:1.88617694;stroke-linecap:butt;stroke-linejoin:miter;stroke-miterlimit:4;stroke-dasharray:none;stroke-dashoffset:0;stroke-opacity:1;color-rendering:auto;image-rendering:auto;shape-rendering:auto;text-rendering:auto;enable-background:accumulate"
       d="m -330.64199,579.66482 v 0.94304 75.30163 a 4.5675026,4.5675026 0 0 0 -3.6157,3.56208 c -6.47591,0.49712 -11.5693,5.89833 -11.5693,12.5026 v 56.81725 c 0,6.61833 5.1151,12.02832 11.61073,12.50551 a 4.5675026,4.5675026 0 0 0 3.57427,3.39979 v 76.35086 h 550.57362 v -76.27144 a 4.5675026,4.5675026 0 0 0 3.65075,-3.45874 c 6.54915,-0.42241 11.72379,-5.85818 11.72379,-12.51478 v -56.81725 c 0,-6.65294 -5.16903,-12.08564 -11.71308,-12.5133 a 4.5675026,4.5675026 0 0 0 -3.66146,-3.50798 v -76.29927 z m 1.88603,1.88606 h 272.551074 l 0.0259,78.09468 c -22.21582,0.41004 -40.1185,18.56308 -40.1185,40.87636 0,22.32226 17.9171,40.48089 40.14533,40.87688 l 0.0259,77.76228 H -328.75596 v -74.50383 a 4.5675026,4.5675026 0 0 0 3.53917,-4.44469 4.5675026,4.5675026 0 0 0 -3.53917,-4.44564 v -70.93005 a 4.5675026,4.5675026 0 0 0 3.53917,-4.44468 4.5675026,4.5675026 0 0 0 -3.53917,-4.44564 z m 274.437604,0 H 218.04558 v 74.47754 a 4.5675026,4.5675026 0 0 0 -3.4739,4.42958 4.5675026,4.5675026 0 0 0 3.4739,4.42906 v 70.96174 a 4.5675026,4.5675026 0 0 0 -3.4739,4.43005 4.5675026,4.5675026 0 0 0 3.4739,4.42856 v 74.45367 H -54.240386 l -0.0259,-77.76961 c 22.04117,-0.6071 39.7428,-18.68256 39.7428,-40.86955 0,-22.19599 -17.71594,-40.27741 -39.7696,-40.87051 z m -279.924214,79.80967 a 4.5675026,4.5675026 0 0 0 3.60058,3.51528 v 70.85403 a 4.5675026,4.5675026 0 0 0 -3.63371,3.67223 c -5.44822,-0.49509 -9.66523,-5.0255 -9.66523,-10.61067 v -56.81725 c 0,-5.59647 4.23418,-10.13381 9.69836,-10.61362 z m 557.85858,0.004 c 5.51487,0.43047 9.80411,4.98912 9.80411,10.62141 v 56.81725 c 0,5.63011 -4.28596,10.18701 -9.79776,10.62044 a 4.5675026,4.5675026 0 0 0 -3.69073,-3.63859 v -70.82867 a 4.5675026,4.5675026 0 0 0 3.68438,-3.59184 z m -279.794576,0.14183 0.0259,78.03082 c -21.22096,-0.39544 -38.28277,-17.69909 -38.28277,-39.01495 0,-21.30724 17.04798,-38.60742 38.25684,-39.01615 z m 1.88606,0.008 c 21.04559,0.59174 37.90691,17.81934 37.90691,39.00881 0,21.18076 -16.84756,38.40082 -37.88109,39.00589 z"
       id="rect826-0-2-3" />
  </g>
</svg>
